<svg width="40" height="41" viewBox="0 0 40 41" fill="none" xmlns="http://www.w3.org/2000/svg">
<path fill-rule="evenodd" clip-rule="evenodd" d="M22.1733 39.2755L23.2575 37.4438L23.2575 37.4438C24.0985 36.023 24.5189 35.3126 25.1943 34.9198C25.8697 34.527 26.7201 34.5124 28.4208 34.483C30.9315 34.4398 32.5062 34.286 33.8268 33.7389C36.2771 32.724 38.2239 30.7772 39.2388 28.327C40 26.4892 40 24.1595 40 19.5001V17.5001C40 10.9532 40 7.67974 38.5264 5.27503C37.7018 3.92947 36.5705 2.79817 35.225 1.9736C32.8203 0.5 29.5469 0.5 23 0.5H17C10.4531 0.5 7.17971 0.5 4.77501 1.9736C3.42946 2.79817 2.29816 3.92947 1.4736 5.27503C0 7.67974 0 10.9532 0 17.5001V19.5001C0 24.1595 0 26.4892 0.761205 28.327C1.77614 30.7772 3.72288 32.724 6.17317 33.7389C7.49378 34.2859 9.06844 34.4398 11.5792 34.483C13.2798 34.5124 14.1302 34.527 14.8056 34.9198C15.481 35.3126 15.9015 36.023 16.7424 37.4438L17.8266 39.2755C18.7929 40.9081 21.207 40.9081 22.1733 39.2755ZM14.4492 25.2488C15.265 24.4331 15.265 23.1105 14.4492 22.2947L10.3462 18.1917L14.4975 14.1461C15.3237 13.3409 15.3408 12.0185 14.5356 11.1923C13.7305 10.3661 12.408 10.349 11.5818 11.1542L6.07568 16.52C6.01047 16.5713 5.94761 16.627 5.8875 16.6871C5.58744 16.9871 5.39776 17.3558 5.31844 17.7425C5.17575 18.4039 5.35656 19.122 5.86414 19.6428C5.93564 19.7162 6.01122 19.7832 6.09017 19.8438L11.4952 25.2488C12.3109 26.0645 13.6335 26.0645 14.4492 25.2488ZM26.6741 11.1734C25.8584 11.9892 25.8584 13.3117 26.6741 14.1275L30.7772 18.2306L26.6259 22.2762C25.7997 23.0814 25.7826 24.4038 26.5878 25.23C27.3929 26.0562 28.7154 26.0733 29.5416 25.2681L35.0485 19.9015C35.1134 19.8504 35.176 19.795 35.2358 19.7351C35.5334 19.4376 35.7224 19.0725 35.8029 18.6892C35.9494 18.0253 35.7693 17.3028 35.2593 16.7795C35.1878 16.7061 35.1122 16.6391 35.0332 16.5785L29.6281 11.1734C28.8124 10.3577 27.4898 10.3577 26.6741 11.1734ZM19.9162 10.9316C20.2744 9.59479 21.6485 8.8015 22.9852 9.15969C24.322 9.51787 25.1153 10.8919 24.7571 12.2287L21.2066 25.4791C20.8484 26.8159 19.4744 27.6092 18.1377 27.251C16.8009 26.8928 16.0076 25.5188 16.3658 24.182L19.9162 10.9316ZM21.3567 11.3814C21.3148 11.5472 21.1463 11.6477 20.9804 11.6057C20.8146 11.5638 20.7141 11.3953 20.7561 11.2294C20.7981 11.0636 20.9665 10.9631 21.1324 11.0051C21.2982 11.047 21.3987 11.2155 21.3567 11.3814ZM20.6468 12.9245C20.8127 12.9665 20.9812 12.866 21.0231 12.7002C21.0651 12.5343 20.9646 12.3659 20.7988 12.3239C20.6329 12.2819 20.4644 12.3824 20.4225 12.5482C20.3805 12.7141 20.481 12.8826 20.6468 12.9245ZM20.6895 14.0197C20.6476 14.1856 20.4791 14.286 20.3132 14.2441C20.1474 14.2021 20.0469 14.0336 20.0889 13.8678C20.1308 13.7019 20.2993 13.6015 20.4652 13.6434C20.631 13.6854 20.7315 13.8538 20.6895 14.0197ZM22.2381 11.9242C22.4039 11.9662 22.5724 11.8658 22.6144 11.6999C22.6563 11.534 22.5559 11.3656 22.39 11.3236C22.2241 11.2817 22.0557 11.3821 22.0137 11.548C21.9718 11.7138 22.0722 11.8823 22.2381 11.9242ZM22.2807 13.0192C22.2387 13.185 22.0702 13.2855 21.9044 13.2435C21.7385 13.2015 21.6381 13.0331 21.68 12.8672C21.722 12.7014 21.8905 12.6009 22.0563 12.6429C22.2222 12.6848 22.3226 12.8533 22.2807 13.0192ZM21.5708 14.562C21.7366 14.6039 21.9051 14.5035 21.9471 14.3376C21.989 14.1718 21.8886 14.0033 21.7227 13.9613C21.5569 13.9194 21.3884 14.0198 21.3464 14.1857C21.3045 14.3515 21.4049 14.52 21.5708 14.562ZM23.8719 12.0181C23.8299 12.1839 23.6615 12.2844 23.4956 12.2424C23.3297 12.2005 23.2293 12.032 23.2713 11.8661C23.3132 11.7003 23.4817 11.5998 23.6475 11.6418C23.8134 11.6837 23.9139 11.8522 23.8719 12.0181ZM23.162 13.561C23.3279 13.6029 23.4963 13.5025 23.5383 13.3366C23.5802 13.1708 23.4798 13.0023 23.3139 12.9603C23.1481 12.9184 22.9796 13.0188 22.9377 13.1847C22.8957 13.3505 22.9961 13.519 23.162 13.561ZM23.2046 14.6556C23.1626 14.8215 22.9942 14.9219 22.8283 14.88C22.6624 14.838 22.562 14.6695 22.604 14.5037C22.6459 14.3378 22.8144 14.2374 22.9802 14.2793C23.1461 14.3213 23.2466 14.4898 23.2046 14.6556ZM20.0601 16.3406C19.7712 16.2619 19.4732 16.4323 19.3946 16.7212L18.7983 18.9102C18.7196 19.1991 18.89 19.4971 19.1789 19.5758L21.0114 20.0749C21.3002 20.1535 21.5982 19.9832 21.6769 19.6943L22.2731 17.5053C22.3518 17.2164 22.1814 16.9184 21.8925 16.8397L20.0601 16.3406ZM18.4433 22.3712C18.4014 22.5371 18.2329 22.6375 18.067 22.5955C17.9012 22.5536 17.8007 22.3851 17.8427 22.2192C17.8846 22.0534 18.0531 21.9529 18.219 21.9949C18.3848 22.0369 18.4853 22.2053 18.4433 22.3712ZM17.7333 23.9151C17.8992 23.9571 18.0677 23.8567 18.1096 23.6908C18.1516 23.5249 18.0511 23.3565 17.8853 23.3145C17.7194 23.2726 17.551 23.373 17.509 23.5389C17.467 23.7047 17.5675 23.8732 17.7333 23.9151ZM17.776 25.0093C17.7341 25.1751 17.5656 25.2756 17.3997 25.2336C17.2339 25.1916 17.1334 25.0232 17.1754 24.8573C17.2174 24.6915 17.3858 24.591 17.5517 24.633C17.7175 24.6749 17.818 24.8434 17.776 25.0093ZM19.3247 22.914C19.4905 22.9559 19.659 22.8555 19.7009 22.6896C19.7429 22.5238 19.6425 22.3553 19.4766 22.3133C19.3107 22.2714 19.1423 22.3718 19.1003 22.5377C19.0583 22.7036 19.1588 22.872 19.3247 22.914ZM19.3672 24.0082C19.3253 24.174 19.1568 24.2745 18.991 24.2325C18.8251 24.1906 18.7247 24.0221 18.7666 23.8562C18.8086 23.6904 18.977 23.5899 19.1429 23.6319C19.3088 23.6739 19.4092 23.8423 19.3672 24.0082ZM18.6573 25.5511C18.8231 25.593 18.9916 25.4926 19.0336 25.3267C19.0755 25.1609 18.9751 24.9924 18.8092 24.9504C18.6433 24.9085 18.4749 25.0089 18.4329 25.1748C18.391 25.3406 18.4914 25.5091 18.6573 25.5511ZM20.9585 23.0072C20.9165 23.173 20.7481 23.2735 20.5822 23.2315C20.4163 23.1896 20.3159 23.0211 20.3578 22.8552C20.3998 22.6894 20.5683 22.5889 20.7341 22.6309C20.9 22.6729 21.0004 22.8413 20.9585 23.0072ZM20.2486 24.55C20.4144 24.592 20.5829 24.4915 20.6249 24.3256C20.6668 24.1598 20.5664 23.9913 20.4005 23.9494C20.2347 23.9074 20.0662 24.0078 20.0242 24.1737C19.9823 24.3396 20.0827 24.508 20.2486 24.55ZM20.2912 25.6452C20.2492 25.811 20.0808 25.9115 19.9149 25.8695C19.749 25.8276 19.6486 25.6591 19.6905 25.4932C19.7325 25.3274 19.901 25.2269 20.0668 25.2689C20.2327 25.3108 20.3331 25.4793 20.2912 25.6452Z" fill="#875BF8"/>
</svg>
